<svg version="1.2" xmlns="http://www.w3.org/2000/svg" xmlns:xlink="http://www.w3.org/1999/xlink" overflow="visible" preserveAspectRatio="none" viewBox="0 0 28.000000000000004 20" width="28.000000000000004" height="20"><g transform="translate(0, 0)"><g transform="translate(0.000009999999998025477, 0) rotate(0)"><path style="stroke-width: 0; stroke-linecap: butt; stroke-linejoin: miter; fill: rgb(26, 34, 76);" d="M27.63078,1.23667c-0.49228,-0.78891 -1.41121,-1.23667 -2.50518,-1.23667h-3.40223v0h-11.69447v0v0h-7.15452c-1.09396,0 -2.01289,0.44776 -2.50518,1.23667c-0.49228,0.78891 -0.49228,1.78038 0,2.73987l7.42801,14.44563c0.50322,0.99147 1.31276,1.56716 2.23169,1.57783v0c0.91893,-0.01066 1.72846,-0.57569 2.23169,-1.57783l1.7394,-3.39019l1.7394,3.39019c0.50322,0.99147 1.31276,1.56716 2.23169,1.57783v0c0.91893,-0.01066 1.72846,-0.57569 2.23169,-1.57783l7.42801,-14.45629c0.49228,-0.94883 0.49228,-1.9403 0,-2.72921zM10.02891,16.96162l-7.26392,-14.14712c-0.02188,-0.0533 -0.0547,-0.11727 -0.07658,-0.18124c0.06564,-0.01066 0.13128,-0.01066 0.19691,-0.01066h5.06505v0h4.49619h1.6847h0.02188h3.01934c0.06564,0 0.13128,0 0.19691,0.01066c-0.02188,0.06397 -0.0547,0.12793 -0.07658,0.18124l-3.29283,6.41791v0l-0.4704,0.90618zM25.235,2.8145l-7.27486,14.14712l-2.47236,-4.82942l4.87908,-9.50959h0.01094h4.73686c0.06564,0 0.13128,0 0.19691,0.01066c-0.02188,0.06397 -0.04376,0.12793 -0.07658,0.18124z" vector-effect="non-scaling-stroke"/></g><defs><path id="path-16709360149223943" d="M27.63078,1.23667c-0.49228,-0.78891 -1.41121,-1.23667 -2.50518,-1.23667h-3.40223v0h-11.69447v0v0h-7.15452c-1.09396,0 -2.01289,0.44776 -2.50518,1.23667c-0.49228,0.78891 -0.49228,1.78038 0,2.73987l7.42801,14.44563c0.50322,0.99147 1.31276,1.56716 2.23169,1.57783v0c0.91893,-0.01066 1.72846,-0.57569 2.23169,-1.57783l1.7394,-3.39019l1.7394,3.39019c0.50322,0.99147 1.31276,1.56716 2.23169,1.57783v0c0.91893,-0.01066 1.72846,-0.57569 2.23169,-1.57783l7.42801,-14.45629c0.49228,-0.94883 0.49228,-1.9403 0,-2.72921zM10.02891,16.96162l-7.26392,-14.14712c-0.02188,-0.0533 -0.0547,-0.11727 -0.07658,-0.18124c0.06564,-0.01066 0.13128,-0.01066 0.19691,-0.01066h5.06505v0h4.49619h1.6847h0.02188h3.01934c0.06564,0 0.13128,0 0.19691,0.01066c-0.02188,0.06397 -0.0547,0.12793 -0.07658,0.18124l-3.29283,6.41791v0l-0.4704,0.90618zM25.235,2.8145l-7.27486,14.14712l-2.47236,-4.82942l4.87908,-9.50959h0.01094h4.73686c0.06564,0 0.13128,0 0.19691,0.01066c-0.02188,0.06397 -0.04376,0.12793 -0.07658,0.18124z" vector-effect="non-scaling-stroke"/></defs></g></svg>