<?xml version="1.0" encoding="utf-8"?>
<!-- Generator: Adobe Illustrator 25.0.0, SVG Export Plug-In . SVG Version: 6.00 Build 0)  -->
<svg version="1.1" id="Layer_1" xmlns="http://www.w3.org/2000/svg" xmlns:xlink="http://www.w3.org/1999/xlink" x="0px" y="0px"
	 viewBox="0 0 256 256" style="enable-background:new 0 0 256 256;" xml:space="preserve">
<style type="text/css">
	.st0{fill:#F37421;}
	.st1{fill:#1A224C;}
</style>
<g>
	<path class="st0" d="M210.2,74.1L157,180.2L138.9,144l35.7-71.4h0.1h34.6c0.5,0,1,0,1.4,0.1C210.6,73.2,210.4,73.7,210.2,74.1z"/>
	<path class="st1" d="M227.7,62.2c-3.6-5.9-10.3-9.3-18.3-9.3h-24.9l0,0H99l0,0l0,0H46.6c-8,0-14.7,3.4-18.3,9.3s-3.6,13.4,0,20.6
		l54.3,108.4c3.7,7.4,9.6,11.8,16.3,11.8l0,0c6.7-0.1,12.6-4.3,16.3-11.8l12.7-25.4l12.7,25.4c3.7,7.4,9.6,11.8,16.3,11.8l0,0
		c6.7-0.1,12.6-4.3,16.3-11.8l54.3-108.5C231.3,75.6,231.3,68.2,227.7,62.2z M99,180.2L45.8,74.1c-0.2-0.4-0.4-0.9-0.6-1.4
		c0.5-0.1,1-0.1,1.4-0.1h37l0,0h32.9H129h0.2h22.1c0.5,0,1,0,1.4,0.1c-0.2,0.5-0.4,1-0.6,1.4L128,122.2l0,0l-3.4,6.8L99,180.2z
		 M210.2,74.1L157,180.2L138.9,144l35.7-71.4h0.1h34.6c0.5,0,1,0,1.4,0.1C210.6,73.2,210.4,73.7,210.2,74.1z"/>
</g>
</svg>
