<svg version="1.2" xmlns="http://www.w3.org/2000/svg" xmlns:xlink="http://www.w3.org/1999/xlink" overflow="visible" preserveAspectRatio="none" viewBox="0 0 3335 3335" clip-rule="evenodd" width="19" height="20"><g transform="translate(1, 1)"><path d="M3021 0H313C141 0 0 141 0 312v2708c0 172 141 312 313 312h2708c172 0 313-141 313-312V312c0-172-141-312-313-312zm-946 623c35 296 200 473 487 492v333c-167 16-313-38-483-141v623c0 792-863 1040-1210 472-223-365-87-1006 629-1032v352c-54 9-113 23-166 40-159 54-249 155-224 332 48 341 674 441 621-225V622h345z" vector-effect="non-scaling-stroke" style="fill: rgb(118, 122, 148);"/></g></svg>