<svg version="1.2" xmlns="http://www.w3.org/2000/svg" xmlns:xlink="http://www.w3.org/1999/xlink" overflow="visible" preserveAspectRatio="none" viewBox="0 0 258 258" xml:space="preserve" y="0px" x="0px" id="Layer_1_1669007980909" width="70" height="70"><g transform="translate(1, 1)"><style type="text/css">
	.st0_1669007980909{fill:#1A224C;}
</style><g>
	<path d="M252.6,45.8c-4.5-7.4-12.9-11.6-22.9-11.6h-31.1l0,0H91.7l0,0l0,0H26.3c-10,0-18.4,4.2-22.9,11.6   s-4.5,16.7,0,25.7L71.3,207c4.6,9.3,12,14.7,20.4,14.8l0,0c8.4-0.1,15.8-5.4,20.4-14.8l15.9-31.8l15.9,31.8   c4.6,9.3,12,14.7,20.4,14.8l0,0c8.4-0.1,15.8-5.4,20.4-14.8l67.9-135.6C257.1,62.5,257.1,53.2,252.6,45.8z M91.7,193.3L25.3,60.6   c-0.2-0.5-0.5-1.1-0.7-1.7c0.6-0.1,1.2-0.1,1.8-0.1h46.3l0,0h41.1h15.4h0.2H157c0.6,0,1.2,0,1.8,0.1c-0.2,0.6-0.5,1.2-0.7,1.7   L128,120.8l0,0l-4.3,8.5L91.7,193.3z M230.7,60.6l-66.5,132.7L141.6,148l44.6-89.2h0.1h43.3c0.6,0,1.2,0,1.8,0.1   C231.2,59.5,231,60.1,230.7,60.6z" class="st0_1669007980909" vector-effect="non-scaling-stroke" style="fill: rgb(255, 255, 255);"/>
</g></g></svg>